HIERARCHY
ROOT root
{
	OFFSET	0	13.1	24.9
	CHANNELS 6  Xposition Yposition Zposition Xrotation Yrotation Zrotation
	JOINT spine_1
	{
		OFFSET	0	9.99999	0
		CHANNELS 3  Xrotation Yrotation Zrotation
		JOINT spine_2
		{
			OFFSET	0	112	-10
			CHANNELS 3  Xrotation Yrotation Zrotation
			JOINT spine_3
			{
				OFFSET	0	206.5	19.3
				CHANNELS 3  Xrotation Yrotation Zrotation
				JOINT spine_4
				{
					OFFSET	0	110.4	14.6
					CHANNELS 3  Xrotation Yrotation Zrotation
					JOINT neck_1
					{
						OFFSET	0	71.8	-50.3
						CHANNELS 3  Xrotation Yrotation Zrotation
						JOINT neck_2
						{
							OFFSET	0	86.2	-25.8
							CHANNELS 3  Xrotation Yrotation Zrotation
							JOINT head_ee
							{
								OFFSET	0	179.8	-8.7
								CHANNELS 3  Xrotation Yrotation Zrotation
								End Site
								{
									OFFSET	1	0	0
								}
							}
						}
					}
					JOINT left_clavicle
					{
						OFFSET	-43.2	22.4	-70.8
						CHANNELS 3  Xrotation Yrotation Zrotation
						JOINT left_shoulder
						{
							OFFSET	-93.9	-5.79999	48.7
							CHANNELS 3  Xrotation Yrotation Zrotation
							JOINT left_elbow
							{
								OFFSET	-291.4	-30.8	15.2
								CHANNELS 3  Xrotation Yrotation Zrotation
								JOINT left_lowarm_twist
								{
									OFFSET	-110.7	-3.89999	13.6
									CHANNELS 3  Xrotation Yrotation Zrotation
									JOINT left_hand
									{
										OFFSET	-110.7	-3.89999	13.6
										CHANNELS 3  Xrotation Yrotation Zrotation
										JOINT left_ee
										{
											OFFSET	-80.8	-5.10001	12.1
											CHANNELS 3  Xrotation Yrotation Zrotation
											End Site
											{
												OFFSET	1	0	0
											}
										}
									}
								}
							}
						}
					}
					JOINT right_clavicle
					{
						OFFSET	43.2	22.4	-70.8
						CHANNELS 3  Xrotation Yrotation Zrotation
						JOINT right_shoulder
						{
							OFFSET	93.9	-5.79999	48.7
							CHANNELS 3  Xrotation Yrotation Zrotation
							JOINT right_elbow
							{
								OFFSET	291.4	-30.8	15.2
								CHANNELS 3  Xrotation Yrotation Zrotation
								JOINT right_lowarm_twist
								{
									OFFSET	110.7	-3.89999	13.6
									CHANNELS 3  Xrotation Yrotation Zrotation
									JOINT right_hand
									{
										OFFSET	110.7	-3.89999	13.6
										CHANNELS 3  Xrotation Yrotation Zrotation
										JOINT right_ee
										{
											OFFSET	80.8	-5.10001	12.1
											CHANNELS 3  Xrotation Yrotation Zrotation
											End Site
											{
												OFFSET	1	0	0
											}
										}
									}
								}
							}
						}
					}
				}
			}
		}
	}
	JOINT left_hip
	{
		OFFSET	-82.8	-127.5	0.300001
		CHANNELS 3  Xrotation Yrotation Zrotation
		JOINT left_knee
		{
			OFFSET	-28.2	-396.7	2.2
			CHANNELS 3  Xrotation Yrotation Zrotation
			JOINT left_ankle
			{
				OFFSET	-11.7	-411.3	35.4
				CHANNELS 3  Xrotation Yrotation Zrotation
				JOINT left_toes
				{
					OFFSET	0	-60	-88.6
					CHANNELS 3  Xrotation Yrotation Zrotation
					JOINT left_foot_ee
					{
						OFFSET	-22.5	-16.5	-42.2
						CHANNELS 3  Xrotation Yrotation Zrotation
						End Site
						{
							OFFSET	1	0	0
						}
					}
				}
			}
		}
	}
	JOINT right_hip
	{
		OFFSET	82.8	-127.5	0.300001
		CHANNELS 3  Xrotation Yrotation Zrotation
		JOINT right_knee
		{
			OFFSET	28.2	-396.7	2.2
			CHANNELS 3  Xrotation Yrotation Zrotation
			JOINT right_ankle
			{
				OFFSET	11.7	-411.3	35.4
				CHANNELS 3  Xrotation Yrotation Zrotation
				JOINT right_toes
				{
					OFFSET	0	-60	-88.6
					CHANNELS 3  Xrotation Yrotation Zrotation
					JOINT right_foot_ee
					{
						OFFSET	22.5	-16.5	-42.2
						CHANNELS 3  Xrotation Yrotation Zrotation
						End Site
						{
							OFFSET	1	0	0
						}
					}
				}
			}
		}
	}
}
MOTION
Frames: 15
Frame Time: 0.02
2857.93988552 709.7 -1587.43992289 13.3149017272 61.194843538 -0.515705919095 -1.69497 -0.424847 -3.7962 -1.68697 -0.182604 -3.8155 -1.66737 0.733708 -3.74884 -1.68695 0.132893 -3.81755 -26.4479 11.093 12.2183 -26.6153 16.5806 17.2361 -0.0 0.0 -0.0 10.3292 16.309 18.6082 -3.58348 -22.8851 55.7064 1.28638 -32.5053 0.375026 -53.5447 -4.49261 4.85533 -0.981969 16.7118 0.793624 -0.0 0.0 -0.0 3.78508 13.8027 -6.35949 -7.48847 16.8199 -61.837 0.895445 23.9207 -0.189689 69.5342 2.69217 7.91341 0.720211 -28.5997 -15.2191 0.0 0.0 0.0 13.7261 44.2958 -22.3627 -0.578887 0.0234035 0.0857537 18.9451 -17.089 -2.85084 -1.65803 0.0 0.0 -0.0 0.0 -0.0 13.179 11.0413 -11.7853 -45.0394 0.818092 -6.68887 24.303 -14.5746 3.28014 7.9071 -0.0 -0.0 0.0 0.0 0.0 
2849.52909337 710.598 -1577.28703942 11.8375471255 60.7203114489 1.13228903951 -1.61524 -0.483486 -3.89463 -1.60683 -0.234876 -3.91745 -1.58299 0.701545 -3.86136 -1.60378 0.0834004 -3.92359 -27.9163 11.2526 11.6626 -28.2423 17.3506 17.1726 -0.0 0.0 -0.0 10.4759 15.3781 19.0083 -2.00524 -22.8746 55.2625 1.33524 -33.4806 0.401633 -53.5396 -4.492 4.8551 -1.24974 16.0687 -1.13018 -0.0 0.0 -0.0 3.56784 14.8871 -5.80837 -7.74623 15.925 -61.802 0.677314 18.5478 -0.110599 69.5919 2.69813 7.91781 0.698466 -28.656 -15.1137 0.0 0.0 0.0 13.5923 46.0176 -22.0337 0.114946 -0.00475048 -0.0169998 20.1851 -18.6703 -3.0566 -2.34361 0.0 0.0 -0.0 0.0 -0.0 14.232 8.6575 -11.5045 -39.7358 0.450045 -5.96127 21.9247 -14.1088 2.98965 6.177 -0.0 -0.0 0.0 0.0 0.0 
2838.76560385 714.328 -1566.24985606 10.808510725 61.8540594264 1.71384425293 -1.49122 -0.534374 -3.99414 -1.48239 -0.279343 -4.01999 -1.45479 0.67374 -3.97304 -1.47681 0.0383477 -4.02949 -27.7024 11.5017 12.6816 -27.9519 17.4263 18.1882 -0.0 0.0 -0.0 10.3414 14.4377 18.9127 -1.07865 -23.3997 55.5407 1.48945 -36.4187 0.490001 -54.0386 -4.55206 4.87727 -1.60043 16.2922 -3.1806 -0.0 0.0 -0.0 3.35754 13.8921 -5.4486 -8.90601 15.0789 -61.5983 0.555403 15.3834 -0.0750119 69.328 2.67094 7.89763 0.520884 -28.2448 -13.987 0.0 0.0 0.0 13.2356 47.1979 -21.1444 0.215556 -0.00893632 -0.0318718 18.5623 -18.7054 -2.83591 -3.16769 0.0 0.0 -0.0 0.0 -0.0 15.7031 8.95852 -11.7022 -36.6321 0.266523 -5.52102 20.7178 -15.5793 2.85064 4.69347 -0.0 -0.0 0.0 0.0 0.0 
2830.73276744 710.788 -1561.68143349 10.763082966 63.0003611507 1.87631482578 -1.50474 -0.571689 -4.11305 -1.49538 -0.309036 -4.14102 -1.46447 0.674032 -4.09754 -1.48789 0.0190232 -4.15248 -29.2656 11.3243 14.4395 -29.3823 16.7784 20.0721 -0.0 0.0 -0.0 10.0424 13.9458 18.4512 1.57426 -22.7506 55.7344 1.59098 -38.2397 0.551576 -54.8601 -4.65134 4.91264 -1.54097 15.4512 -3.20573 -0.0 0.0 -0.0 3.10189 14.3838 -4.86521 -9.17079 13.7734 -61.9017 0.350945 9.86239 -0.0302792 69.7692 2.71645 7.93129 0.233912 -28.3203 -12.4061 0.0 0.0 0.0 8.6494 47.8657 -18.7411 2.70389 -0.120753 -0.397283 19.9586 -20.2914 -3.06899 -2.90501 0.0 0.0 -0.0 0.0 -0.0 18.8171 10.3825 -13.5987 -31.6924 0.0244706 -4.80211 13.0201 -20.6991 1.87872 4.9404 -0.0 -0.0 0.0 0.0 0.0 
2775.96266444 711.504 -1555.60100177 11.3885027551 62.6083641786 -0.0803877891993 -1.5743 -0.717057 -4.3927 -1.56368 -0.436366 -4.42933 -1.51965 0.622201 -4.40711 -1.54674 -0.080913 -4.44999 -24.2679 14.1476 14.4087 -24.5228 21.1387 20.3019 -0.0 0.0 -0.0 10.3014 13.3262 18.9989 4.34278 -19.8205 57.1804 2.01445 -44.9346 0.833136 -56.8812 -4.89763 4.99355 -1.89088 14.0944 -6.02569 -0.0 0.0 -0.0 2.48611 14.1186 -3.58791 -13.8286 8.71052 -61.195 0.181538 5.13882 -0.00814644 69.8864 2.72859 7.94018 -1.38315 -29.0206 -3.85875 0.0 0.0 0.0 2.527 48.7119 -14.8056 3.54733 -0.16225 -0.520021 20.6899 -25.6096 -3.34256 -5.2155 0.0 0.0 -0.0 0.0 -0.0 24.9298 13.8639 -14.7641 -24.6338 -0.211931 -3.74529 0.017447 -25.3654 0.00266903 5.97658 -0.0 -0.0 0.0 0.0 0.0 
2775.56047559 711.504 -1557.02947717 11.3113633784 62.4083810009 0.00657100140022 -1.5743 -0.717057 -4.3927 -1.56368 -0.436366 -4.42933 -1.51965 0.622201 -4.40711 -1.54674 -0.080913 -4.44999 -24.2679 14.1476 14.4087 -24.5228 21.1387 20.3019 -0.0 0.0 -0.0 10.3014 13.3262 18.9989 4.34278 -19.8205 57.1804 2.01445 -44.9346 0.833136 -56.8812 -4.89763 4.99355 -1.89088 14.0944 -6.02569 -0.0 0.0 -0.0 2.48611 14.1186 -3.58791 -13.8286 8.71052 -61.195 0.181538 5.13882 -0.00814644 69.8864 2.72859 7.94018 -1.38315 -29.0206 -3.85875 0.0 0.0 0.0 2.527 48.7119 -14.8056 3.54733 -0.16225 -0.520021 20.6899 -25.6096 -3.34256 -5.2155 0.0 0.0 -0.0 0.0 -0.0 24.9298 13.8639 -14.7641 -24.6338 -0.211931 -3.74529 0.017447 -25.3654 0.00266903 5.97658 -0.0 -0.0 0.0 0.0 0.0 
2758.15151213 705.049 -1558.90168089 9.74075856657 60.7280626369 1.1939492316 -1.50852 -0.613339 -4.47766 -1.49742 -0.327467 -4.50753 -1.46152 0.742333 -4.45813 -1.48924 0.0296868 -4.51929 -19.6932 16.0066 14.3763 -19.8569 23.5768 19.9156 -0.0 0.0 -0.0 10.3433 13.1304 19.1013 5.85013 -19.5033 57.9969 2.19859 -47.4363 0.966039 -57.4069 -4.96214 5.01316 -1.9545 14.0997 -6.42223 -0.0 0.0 -0.0 1.96225 14.6181 -2.43258 -15.4263 6.12949 -61.386 0.256432 7.23962 -0.0162224 69.8456 2.72436 7.93709 -1.95686 -28.9263 -0.740589 0.0 0.0 0.0 0.762815 51.5427 -12.2428 3.30133 -0.149959 -0.484285 27.7281 -25.5037 -4.28279 -6.23206 0.0 0.0 -0.0 0.0 -0.0 24.4677 15.0888 -13.6001 -18.9854 -0.306332 -2.88405 -1.0455 -21.9407 -0.15772 6.41117 -0.0 -0.0 0.0 0.0 0.0 
2741.75478128 700.997 -1566.85923133 8.25803423893 59.6085472738 1.84859618817 -1.43584 -0.592137 -4.55483 -1.42436 -0.301413 -4.5832 -1.39007 0.77994 -4.52651 -1.41865 0.0560593 -4.59274 -17.6846 17.0161 13.9627 -17.8515 25.1783 19.4336 -0.0 0.0 -0.0 10.4093 12.7427 19.2743 7.22188 -19.3123 58.518 2.33285 -49.1222 1.06626 -57.7882 -5.00904 5.02701 -1.98904 13.6435 -6.86129 -0.0 0.0 -0.0 1.83652 13.9255 -2.23546 -16.8026 5.48797 -61.2856 0.238406 6.73556 -0.0140294 69.3733 2.6756 7.90111 -2.38464 -28.6958 1.66891 0.0 0.0 0.0 -1.78136 51.9726 -9.37167 4.15729 -0.193385 -0.608404 29.5511 -25.1049 -4.48875 -7.51434 0.0 0.0 -0.0 0.0 -0.0 24.9678 16.1511 -12.5596 -14.9164 -0.321543 -2.26006 -3.5405 -21.4152 -0.535626 5.61346 -0.0 -0.0 0.0 0.0 0.0 
2726.54622349 698.556 -1571.1356764 8.40162940361 59.4016554406 1.61200350905 -1.56911 -0.561134 -4.54553 -1.55766 -0.271062 -4.57195 -1.52559 0.817581 -4.50655 -1.55391 0.0963726 -4.57895 -17.3422 17.4798 14.125 -17.5137 25.8876 19.6727 -0.0 0.0 -0.0 10.1907 12.3834 18.9244 7.89229 -18.8359 59.4106 2.60731 -52.2426 1.27868 -58.2233 -5.06266 5.04244 -2.21403 13.5511 -8.32823 -0.0 0.0 -0.0 1.86363 13.6983 -2.31513 -17.7244 4.25578 -61.0434 0.243718 6.88421 -0.0146592 69.1932 2.65709 7.88728 -2.92152 -28.6314 4.59596 0.0 0.0 0.0 -2.76788 50.5982 -9.49193 2.83468 -0.127068 -0.416355 32.2655 -24.8164 -4.79255 -7.62951 0.0 0.0 -0.0 0.0 -0.0 25.9711 17.0351 -11.7321 -9.69255 -0.276119 -1.4601 -4.05496 -16.3396 -0.604207 4.06775 -0.0 -0.0 0.0 0.0 0.0 
2705.31221425 696.669 -1576.79891999 7.96084315569 61.4921192027 1.60425855263 -1.71809 -0.732143 -4.51404 -1.70687 -0.443725 -4.55137 -1.66033 0.655074 -4.52584 -1.6889 -0.0671437 -4.57241 -18.2083 17.1556 13.7745 -18.4654 25.7009 19.475 -0.0 0.0 -0.0 10.1592 12.0185 18.9136 8.5759 -18.6613 59.8745 3.04511 -56.4468 1.63465 -59.403 -5.20861 5.08221 -2.50078 13.3786 -10.238 -0.0 0.0 -0.0 2.12234 12.1057 -3.01295 -18.8009 3.17394 -61.2794 0.2499 7.05708 -0.0154094 68.1993 2.55569 7.80994 -3.62531 -28.7657 8.3347 0.0 0.0 0.0 -2.64141 50.7388 -9.68658 2.60965 -0.116229 -0.383533 33.3617 -23.0821 -4.83184 -8.8946 0.0 0.0 -0.0 0.0 -0.0 27.6906 18.5254 -11.3525 -3.66476 -0.133446 -0.5465 -4.49957 -8.75375 -0.664854 2.21747 -0.0 -0.0 0.0 0.0 0.0 
2704.45019491 696.669 -1581.30923886 7.82401264507 60.9499637253 1.76036982352 -1.71809 -0.732143 -4.51404 -1.70687 -0.443725 -4.55137 -1.66033 0.655074 -4.52584 -1.6889 -0.0671437 -4.57241 -18.2083 17.1556 13.7745 -18.4654 25.7009 19.475 -0.0 0.0 -0.0 10.1592 12.0185 18.9136 8.5759 -18.6613 59.8745 3.04511 -56.4468 1.63465 -59.403 -5.20861 5.08221 -2.50078 13.3786 -10.238 -0.0 0.0 -0.0 2.12234 12.1057 -3.01295 -18.8009 3.17394 -61.2794 0.2499 7.05708 -0.0154094 68.1993 2.55569 7.80994 -3.62531 -28.7657 8.3347 0.0 0.0 0.0 -2.64141 50.7388 -9.68658 2.60965 -0.116229 -0.383533 33.3617 -23.0821 -4.83184 -8.8946 0.0 0.0 -0.0 0.0 -0.0 27.6906 18.5254 -11.3525 -3.66476 -0.133446 -0.5465 -4.49957 -8.75375 -0.664854 2.21747 -0.0 -0.0 0.0 0.0 0.0 
2695.65100825 692.232 -1587.83733877 7.38616067709 61.6466889507 1.83975848963 -1.66304 -0.653999 -4.39551 -1.65237 -0.373257 -4.42813 -1.61315 0.6906 -4.38992 -1.64004 -0.0106608 -4.44379 -17.6404 17.4443 13.2301 -17.9463 26.3937 18.9551 -0.0 0.0 -0.0 10.1397 12.1617 18.8599 9.08734 -18.585 60.2416 3.35249 -58.9321 1.89449 -60.0026 -5.28308 5.10126 -2.68885 13.3254 -11.4685 -0.0 0.0 -0.0 2.21333 11.0266 -3.30439 -19.0981 3.07987 -62.0886 0.25302 7.14428 -0.0157952 67.902 2.52563 7.78647 -3.85223 -28.7743 9.56841 0.0 0.0 0.0 -3.74205 50.2084 -9.27116 2.86317 -0.12845 -0.420508 33.9785 -22.2715 -4.86166 -9.36276 0.0 0.0 -0.0 0.0 -0.0 28.7166 19.5491 -11.9635 -0.965086 -0.0385333 -0.14309 -3.97303 -4.05176 -0.588268 1.73493 -0.0 -0.0 0.0 0.0 0.0 
2598.00550288 673.461 -1606.6765795 7.90046174081 66.2872359525 -1.27326903056 -1.65964 -0.776927 -3.54303 -1.65283 -0.55005 -3.58521 -1.61108 0.31752 -3.6132 -1.6292 -0.256718 -3.61802 -8.62668 16.3654 4.33482 -8.73246 27.6937 8.06143 -0.0 0.0 -0.0 9.73116 10.7099 18.2812 5.40134 -20.5232 62.2707 3.45361 -59.6786 1.98145 -60.201 -5.30776 5.10739 -2.59529 11.8878 -11.6146 -0.0 0.0 -0.0 2.19711 5.55049 -3.76571 -19.2068 7.05751 -64.5835 0.433754 12.1269 -0.0460755 66.4503 2.3806 7.66964 -5.11531 -28.9395 16.4796 0.0 0.0 0.0 -5.32306 48.3677 -9.49439 -10.3011 0.285162 1.55305 38.8972 -19.5415 -5.23375 -12.4377 0.0 0.0 -0.0 0.0 -0.0 30.6475 24.2414 -8.99341 -4.8223 -0.168294 -0.720727 -12.754 5.79774 -1.97067 11.2166 -0.0 -0.0 0.0 0.0 0.0 
2584.30071967 673.779 -1616.14983552 6.74482711699 66.2674870111 -0.916710290284 -1.73853 -0.626091 -3.42464 -1.73209 -0.407038 -3.45748 -1.70082 0.431727 -3.45449 -1.71745 -0.118922 -3.4793 -9.65966 14.9817 3.09703 -9.84797 26.1099 6.76298 -0.0 0.0 -0.0 9.43421 10.142 17.7915 3.43075 -20.7258 62.4337 3.60551 -60.7405 2.11328 -59.3543 -5.20256 5.08063 -2.47938 11.0774 -11.2787 -0.0 0.0 -0.0 2.15797 5.11619 -3.72495 -18.3232 7.08641 -64.5448 0.502634 13.982 -0.0616358 67.2779 2.46291 7.73669 -5.04086 -28.9437 16.0549 0.0 0.0 0.0 -5.12248 48.2357 -9.49676 -12.1057 0.306168 1.82912 38.6574 -19.3126 -5.20209 -12.7183 0.0 0.0 -0.0 0.0 -0.0 30.5929 24.6599 -8.53813 -5.06488 -0.17515 -0.757323 -14.7447 5.99112 -2.28474 11.26 -0.0 -0.0 0.0 0.0 0.0 
2568.78927915 671.642 -1622.08167008 6.67133652008 67.068511087 -1.22990766487 -1.801 -0.546102 -3.42608 -1.79453 -0.327118 -3.45385 -1.76817 0.512635 -3.43125 -1.7846 -0.0353612 -3.4691 -9.51971 14.5857 3.20932 -9.68136 25.2633 6.73413 -0.0 0.0 -0.0 9.2328 9.37146 17.4903 2.31567 -20.2582 63.1062 3.43587 -59.55 1.96615 -58.9883 -5.1572 5.06857 -2.19191 10.6108 -9.64725 -0.0 0.0 -0.0 2.17042 4.4334 -3.80929 -18.2147 8.16869 -65.4442 0.571096 15.7966 -0.0792295 67.5412 2.48931 7.75777 -4.98764 -28.8501 15.8226 0.0 0.0 0.0 -5.93627 48.3051 -8.9451 -13.3691 0.315695 2.02274 38.9232 -16.684 -5.12636 -12.2509 0.0 0.0 -0.0 0.0 -0.0 31.0486 24.4994 -8.68002 -6.39691 -0.21003 -0.958763 -17.5902 1.77522 -2.68653 12.4336 -0.0 -0.0 0.0 0.0 0.0 
